<svg xmlns="http://www.w3.org/2000/svg" xmlns:xlink="http://www.w3.org/1999/xlink" width="500" zoomAndPan="magnify" viewBox="0 0 375 374.999991" height="500" preserveAspectRatio="xMidYMid meet" version="1.0"><defs><g/><clipPath id="48c5520c63"><path d="M 23 55 L 349.863281 55 L 349.863281 257 L 23 257 Z M 23 55 " clip-rule="nonzero"/></clipPath><clipPath id="1aee508b04"><path d="M 18.726562 108 L 177 108 L 177 177 L 18.726562 177 Z M 18.726562 108 " clip-rule="nonzero"/></clipPath></defs><g clip-path="url(#48c5520c63)"><path fill="#1c75bc" d="M 246.246094 232.585938 C 211.644531 213.953125 192.625 186.636719 173.605469 153.167969 C 145.347656 103.414062 83.210938 75.191406 31.222656 58.007812 C 28.6875 57.101562 26.332031 56.378906 23.796875 55.65625 C 69.625 52.035156 120.890625 67.957031 160.019531 93.464844 C 204.582031 122.59375 231.933594 171.257812 279.214844 197.308594 C 299.683594 208.527344 326.3125 217.027344 349.863281 217.027344 C 333.378906 222.09375 312.90625 235.84375 321.058594 256.105469 C 294.972656 251.402344 269.792969 245.25 246.246094 232.585938 Z M 246.246094 232.585938 " fill-opacity="1" fill-rule="nonzero"/></g><g clip-path="url(#1aee508b04)"><path fill="#00aeef" d="M 129.40625 117.707031 C 144.804688 130.007812 156.757812 143.398438 165.089844 158.050781 C 168.894531 164.5625 172.519531 170.894531 176.324219 176.867188 C 175.960938 176.683594 175.597656 176.503906 175.234375 176.140625 C 175.234375 176.140625 175.054688 176.140625 175.054688 175.960938 C 174.691406 175.78125 174.328125 175.417969 173.96875 175.238281 C 171.433594 173.609375 168.535156 171.800781 165.089844 169.808594 C 133.933594 151.175781 68.175781 116.078125 30.316406 128.019531 C 27.601562 128.925781 25.066406 130.007812 22.710938 131.277344 C 22.167969 131.457031 21.804688 131.820312 21.261719 132.179688 C 20.898438 132.363281 20.535156 132.722656 19.992188 132.902344 C 19.8125 132.902344 19.8125 133.085938 19.628906 133.085938 C 19.269531 133.445312 18.90625 133.628906 18.363281 133.988281 C 18.722656 133.988281 49.699219 89.304688 129.40625 117.707031 Z M 129.40625 117.707031 " fill-opacity="1" fill-rule="nonzero"/></g><path fill="#00aeef" d="M 148.0625 173.246094 C 148.0625 173.246094 171.25 187.71875 186.648438 192.0625 C 201.503906 212.503906 218.347656 228.605469 241.71875 241.269531 C 241.535156 241.269531 241.535156 241.269531 241.355469 241.269531 C 241.171875 241.269531 240.8125 241.089844 240.449219 241.089844 C 240.449219 241.089844 240.449219 241.089844 240.269531 241.089844 C 240.085938 241.089844 239.90625 241.089844 239.90625 241.089844 C 239.90625 241.089844 239.90625 241.089844 239.722656 241.089844 C 239.542969 241.089844 239.363281 241.089844 239.179688 240.910156 L 239 240.910156 C 238.820312 240.910156 238.820312 240.910156 238.636719 240.910156 L 238.457031 240.910156 C 238.273438 240.910156 238.09375 240.910156 237.914062 240.726562 C 237.730469 240.726562 237.730469 240.726562 237.550781 240.726562 L 237.371094 240.726562 C 237.1875 240.726562 237.007812 240.726562 237.007812 240.726562 C 236.644531 240.726562 236.28125 240.546875 235.921875 240.546875 L 235.738281 240.546875 C 235.195312 240.367188 234.472656 240.367188 233.746094 240.183594 C 232.117188 239.824219 230.304688 239.460938 228.132812 238.917969 C 227.226562 238.738281 226.5 238.558594 225.59375 238.195312 L 225.414062 238.195312 C 224.507812 238.015625 223.601562 237.832031 222.878906 237.472656 C 222.695312 237.472656 222.695312 237.472656 222.515625 237.289062 C 221.972656 237.109375 221.429688 237.109375 221.066406 236.929688 C 220.886719 236.929688 220.886719 236.929688 220.703125 236.929688 C 199.507812 231.140625 166.722656 219.378906 139.1875 197.128906 C 115.09375 177.589844 88.464844 175.597656 69.082031 177.769531 C 55.496094 179.398438 45.535156 183.015625 42.273438 184.464844 C 42.09375 184.464844 42.09375 184.644531 41.910156 184.644531 C 41.730469 184.644531 41.730469 184.644531 41.730469 184.824219 L 41.367188 184.824219 C 41.367188 184.824219 100.421875 146.109375 148.0625 173.246094 Z M 148.0625 173.246094 " fill-opacity="1" fill-rule="nonzero"/><path fill="#00aeef" d="M 180.125 232.769531 C 204.761719 244.890625 229.578125 251.222656 257.476562 248.867188 C 257.476562 248.867188 257.65625 248.867188 258.019531 249.050781 C 273.238281 255.382812 288.453125 259.542969 302.945312 262.617188 C 307.109375 263.882812 309.828125 264.789062 309.828125 264.789062 L 309.464844 264.789062 C 309.464844 264.789062 309.464844 264.789062 309.285156 264.789062 L 309.105469 264.789062 C 308.921875 264.789062 308.921875 264.789062 308.742188 264.789062 C 308.558594 264.789062 308.558594 264.789062 308.378906 264.789062 C 308.378906 264.789062 308.378906 264.789062 308.199219 264.789062 C 308.015625 264.789062 308.015625 264.789062 307.835938 264.789062 C 307.835938 264.789062 307.835938 264.789062 307.65625 264.789062 C 307.292969 264.789062 307.109375 264.96875 306.75 265.152344 C 306.566406 265.152344 306.386719 265.332031 306.386719 265.332031 C 306.207031 265.332031 306.023438 265.511719 305.84375 265.511719 C 305.480469 265.695312 305.117188 265.875 304.757812 266.054688 C 304.574219 266.054688 304.394531 266.238281 304.210938 266.238281 C 300.410156 268.046875 295.878906 270.398438 294.429688 270.941406 C 280.84375 275.824219 266.714844 279.082031 252.222656 279.984375 C 214.183594 282.699219 188.640625 267.320312 159.292969 245.433594 C 141 231.863281 120.527344 220.464844 98.25 221.1875 C 97.703125 221.1875 97.160156 221.1875 96.4375 221.1875 C 96.253906 221.1875 96.074219 221.1875 96.074219 221.1875 C 95.53125 221.1875 94.988281 221.1875 94.445312 221.371094 C 93.902344 221.371094 93.355469 221.550781 92.8125 221.550781 C 92.632812 221.550781 92.453125 221.550781 92.269531 221.550781 C 91.726562 221.550781 91.183594 221.730469 90.640625 221.730469 C 90.097656 221.914062 89.554688 221.914062 89.007812 222.09375 C 88.828125 222.09375 88.648438 222.09375 88.464844 222.09375 C 87.921875 222.273438 87.378906 222.273438 86.65625 222.457031 C 86.109375 222.636719 85.566406 222.816406 84.84375 222.816406 C 84.660156 222.816406 84.480469 222.816406 84.480469 223 C 83.9375 223.179688 83.214844 223.359375 82.667969 223.542969 C 77.960938 224.988281 72.886719 226.796875 68.902344 229.691406 C 80.316406 221.550781 88.828125 214.496094 103.683594 211.78125 C 131.035156 206.898438 155.308594 220.464844 180.125 232.769531 Z M 180.125 232.769531 " fill-opacity="1" fill-rule="nonzero"/><g fill="#43b0f1" fill-opacity="1"><g transform="translate(88.728131, 327.600253)"><g><path d="M 25.5625 -32.75 L 25.5625 -29.484375 L 15.296875 -29.484375 L 15.296875 0 L 11.46875 0 L 11.46875 -29.484375 L 1.203125 -29.484375 L 1.203125 -32.75 Z M 25.5625 -32.75 "/></g></g></g><g fill="#43b0f1" fill-opacity="1"><g transform="translate(115.46911, 327.600253)"><g><path d="M 4.296875 0 L 4.296875 -24.703125 L 7.765625 -24.703125 L 7.765625 -20.828125 L 8.25 -20.71875 C 9.394531 -23.53125 11.554688 -24.9375 14.734375 -24.9375 C 16.421875 -24.9375 17.6875 -24.628906 18.53125 -24.015625 L 17.578125 -20.921875 L 17.140625 -20.828125 C 16.210938 -21.296875 15.195312 -21.53125 14.09375 -21.53125 C 12.113281 -21.53125 10.59375 -20.789062 9.53125 -19.3125 C 8.476562 -17.832031 7.953125 -15.4375 7.953125 -12.125 L 7.953125 0 Z M 4.296875 0 "/></g></g></g><g fill="#43b0f1" fill-opacity="1"><g transform="translate(134.550612, 327.600253)"><g><path d="M 10.1875 0.46875 C 7.757812 0.46875 5.859375 -0.164062 4.484375 -1.4375 C 3.117188 -2.707031 2.4375 -4.519531 2.4375 -6.875 C 2.4375 -8.34375 2.738281 -9.578125 3.34375 -10.578125 C 3.945312 -11.585938 4.882812 -12.410156 6.15625 -13.046875 C 7.425781 -13.679688 9.082031 -14.171875 11.125 -14.515625 C 12.925781 -14.816406 14.289062 -15.148438 15.21875 -15.515625 C 16.15625 -15.890625 16.78125 -16.304688 17.09375 -16.765625 C 17.414062 -17.234375 17.578125 -17.820312 17.578125 -18.53125 C 17.578125 -19.644531 17.191406 -20.5 16.421875 -21.09375 C 15.660156 -21.695312 14.425781 -22 12.71875 -22 C 11.125 -22 9.753906 -21.6875 8.609375 -21.0625 C 7.472656 -20.445312 6.425781 -19.523438 5.46875 -18.296875 L 5.015625 -18.296875 L 3.21875 -20.828125 C 4.269531 -22.160156 5.597656 -23.21875 7.203125 -24 C 8.816406 -24.78125 10.65625 -25.171875 12.71875 -25.171875 C 15.632812 -25.171875 17.78125 -24.53125 19.15625 -23.25 C 20.539062 -21.976562 21.234375 -20.21875 21.234375 -17.96875 L 21.234375 -4.859375 C 21.234375 -3.484375 21.816406 -2.796875 22.984375 -2.796875 C 23.367188 -2.796875 23.742188 -2.863281 24.109375 -3 L 24.421875 -2.90625 L 24.84375 -0.375 C 24.570312 -0.195312 24.210938 -0.0625 23.765625 0.03125 C 23.328125 0.125 22.878906 0.171875 22.421875 0.171875 C 21.066406 0.171875 20.039062 -0.125 19.34375 -0.71875 C 18.644531 -1.3125 18.203125 -2.191406 18.015625 -3.359375 L 17.546875 -3.40625 C 16.835938 -2.101562 15.882812 -1.128906 14.6875 -0.484375 C 13.5 0.148438 12 0.46875 10.1875 0.46875 Z M 11 -2.4375 C 12.375 -2.4375 13.5625 -2.753906 14.5625 -3.390625 C 15.570312 -4.023438 16.347656 -4.914062 16.890625 -6.0625 C 17.429688 -7.21875 17.703125 -8.550781 17.703125 -10.0625 L 17.703125 -13.1875 L 17.265625 -13.28125 C 16.710938 -12.894531 16.039062 -12.570312 15.25 -12.3125 C 14.457031 -12.050781 13.351562 -11.816406 11.9375 -11.609375 C 10.5 -11.410156 9.359375 -11.109375 8.515625 -10.703125 C 7.671875 -10.304688 7.070312 -9.796875 6.71875 -9.171875 C 6.363281 -8.554688 6.1875 -7.789062 6.1875 -6.875 C 6.1875 -5.425781 6.609375 -4.320312 7.453125 -3.5625 C 8.304688 -2.8125 9.488281 -2.4375 11 -2.4375 Z M 11 -2.4375 "/></g></g></g><g fill="#43b0f1" fill-opacity="1"><g transform="translate(160.104596, 327.600253)"><g><path d="M 4.296875 0 L 4.296875 -24.703125 L 7.765625 -24.703125 L 7.765625 -20.828125 L 8.25 -20.71875 C 9.0625 -22.164062 10.109375 -23.269531 11.390625 -24.03125 C 12.671875 -24.789062 14.226562 -25.171875 16.0625 -25.171875 C 19.03125 -25.171875 21.179688 -24.410156 22.515625 -22.890625 C 23.859375 -21.378906 24.53125 -19.050781 24.53125 -15.90625 L 24.53125 0 L 20.875 0 L 20.875 -15.8125 C 20.875 -17.300781 20.679688 -18.5 20.296875 -19.40625 C 19.921875 -20.3125 19.332031 -20.96875 18.53125 -21.375 C 17.738281 -21.789062 16.691406 -22 15.390625 -22 C 13.160156 -22 11.363281 -21.257812 10 -19.78125 C 8.632812 -18.3125 7.953125 -15.941406 7.953125 -12.671875 L 7.953125 0 Z M 4.296875 0 "/></g></g></g><g fill="#43b0f1" fill-opacity="1"><g transform="translate(188.54768, 327.600253)"><g><path d="M 11.265625 0.46875 C 9.710938 0.46875 8.273438 0.265625 6.953125 -0.140625 C 5.628906 -0.554688 4.507812 -1.117188 3.59375 -1.828125 C 2.6875 -2.546875 2.050781 -3.351562 1.6875 -4.25 L 3.828125 -6.5 L 4.296875 -6.5 C 5.109375 -5.269531 6.082031 -4.34375 7.21875 -3.71875 C 8.351562 -3.101562 9.703125 -2.796875 11.265625 -2.796875 C 13.085938 -2.796875 14.472656 -3.148438 15.421875 -3.859375 C 16.367188 -4.566406 16.84375 -5.554688 16.84375 -6.828125 C 16.84375 -7.796875 16.554688 -8.597656 15.984375 -9.234375 C 15.410156 -9.867188 14.476562 -10.34375 13.1875 -10.65625 L 9.03125 -11.6875 C 6.800781 -12.226562 5.175781 -13.082031 4.15625 -14.25 C 3.132812 -15.414062 2.625 -16.851562 2.625 -18.5625 C 2.625 -19.90625 2.96875 -21.070312 3.65625 -22.0625 C 4.34375 -23.0625 5.332031 -23.828125 6.625 -24.359375 C 7.914062 -24.898438 9.445312 -25.171875 11.21875 -25.171875 C 13.488281 -25.171875 15.273438 -24.851562 16.578125 -24.21875 C 17.890625 -23.59375 18.910156 -22.710938 19.640625 -21.578125 L 17.578125 -19.5625 L 17.140625 -19.5625 C 16.347656 -20.46875 15.484375 -21.117188 14.546875 -21.515625 C 13.617188 -21.921875 12.507812 -22.125 11.21875 -22.125 C 9.59375 -22.125 8.347656 -21.832031 7.484375 -21.25 C 6.617188 -20.675781 6.1875 -19.832031 6.1875 -18.71875 C 6.1875 -17.71875 6.488281 -16.910156 7.09375 -16.296875 C 7.707031 -15.691406 8.773438 -15.203125 10.296875 -14.828125 L 14.40625 -13.84375 C 16.550781 -13.332031 18.101562 -12.488281 19.0625 -11.3125 C 20.019531 -10.132812 20.5 -8.65625 20.5 -6.875 C 20.5 -5.425781 20.15625 -4.148438 19.46875 -3.046875 C 18.78125 -1.941406 17.738281 -1.078125 16.34375 -0.453125 C 14.957031 0.160156 13.265625 0.46875 11.265625 0.46875 Z M 11.265625 0.46875 "/></g></g></g><g fill="#43b0f1" fill-opacity="1"><g transform="translate(211.391732, 327.600253)"><g><path d="M 4.296875 10.015625 L 4.296875 -24.703125 L 7.953125 -24.703125 L 7.953125 -21.015625 L 8.421875 -20.921875 C 10.253906 -23.753906 12.953125 -25.171875 16.515625 -25.171875 C 18.566406 -25.171875 20.363281 -24.703125 21.90625 -23.765625 C 23.445312 -22.828125 24.640625 -21.394531 25.484375 -19.46875 C 26.335938 -17.550781 26.765625 -15.175781 26.765625 -12.34375 C 26.765625 -9.519531 26.316406 -7.148438 25.421875 -5.234375 C 24.523438 -3.328125 23.285156 -1.898438 21.703125 -0.953125 C 20.117188 -0.00390625 18.296875 0.46875 16.234375 0.46875 C 14.566406 0.46875 13.082031 0.175781 11.78125 -0.40625 C 10.476562 -0.988281 9.359375 -1.941406 8.421875 -3.265625 L 7.953125 -3.1875 L 7.953125 10.015625 Z M 15.4375 -2.796875 C 20.4375 -2.796875 22.9375 -5.976562 22.9375 -12.34375 C 22.9375 -18.71875 20.4375 -21.90625 15.4375 -21.90625 C 13.96875 -21.90625 12.671875 -21.566406 11.546875 -20.890625 C 10.429688 -20.222656 9.550781 -19.175781 8.90625 -17.75 C 8.269531 -16.320312 7.953125 -14.519531 7.953125 -12.34375 C 7.953125 -10.175781 8.269531 -8.378906 8.90625 -6.953125 C 9.550781 -5.523438 10.429688 -4.472656 11.546875 -3.796875 C 12.671875 -3.128906 13.96875 -2.796875 15.4375 -2.796875 Z M 15.4375 -2.796875 "/></g></g></g><g fill="#43b0f1" fill-opacity="1"><g transform="translate(240.865038, 327.600253)"><g><path d="M 14.171875 0.46875 C 11.847656 0.46875 9.820312 -0.0195312 8.09375 -1 C 6.375 -1.988281 5.046875 -3.441406 4.109375 -5.359375 C 3.171875 -7.285156 2.703125 -9.613281 2.703125 -12.34375 C 2.703125 -15.070312 3.171875 -17.398438 4.109375 -19.328125 C 5.046875 -21.253906 6.375 -22.707031 8.09375 -23.6875 C 9.820312 -24.675781 11.847656 -25.171875 14.171875 -25.171875 C 16.503906 -25.171875 18.53125 -24.675781 20.25 -23.6875 C 21.976562 -22.707031 23.304688 -21.253906 24.234375 -19.328125 C 25.171875 -17.398438 25.640625 -15.070312 25.640625 -12.34375 C 25.640625 -9.613281 25.171875 -7.285156 24.234375 -5.359375 C 23.304688 -3.441406 21.976562 -1.988281 20.25 -1 C 18.53125 -0.0195312 16.503906 0.46875 14.171875 0.46875 Z M 14.171875 -2.796875 C 16.640625 -2.796875 18.523438 -3.570312 19.828125 -5.125 C 21.140625 -6.675781 21.796875 -9.082031 21.796875 -12.34375 C 21.796875 -15.613281 21.140625 -18.023438 19.828125 -19.578125 C 18.523438 -21.128906 16.640625 -21.90625 14.171875 -21.90625 C 11.710938 -21.90625 9.828125 -21.125 8.515625 -19.5625 C 7.203125 -18 6.546875 -15.59375 6.546875 -12.34375 C 6.546875 -9.082031 7.203125 -6.675781 8.515625 -5.125 C 9.828125 -3.570312 11.710938 -2.796875 14.171875 -2.796875 Z M 14.171875 -2.796875 "/></g></g></g><g fill="#057dcd" fill-opacity="1"><g transform="translate(269.212031, 327.600253)"><g><path d="M 24.1875 -32.75 L 24.1875 -29.5625 L 8.796875 -29.5625 L 8.796875 -17.65625 L 22.640625 -17.65625 L 22.640625 -14.453125 L 8.796875 -14.453125 L 8.796875 0 L 4.953125 0 L 4.953125 -32.75 Z M 24.1875 -32.75 "/></g></g></g><g fill="#057dcd" fill-opacity="1"><g transform="translate(295.169145, 327.600253)"><g><path d="M 9.828125 0.46875 C 8.085938 0.46875 6.71875 -0.0234375 5.71875 -1.015625 C 4.71875 -2.015625 4.21875 -3.5 4.21875 -5.46875 L 4.21875 -34.625 L 7.859375 -34.625 L 7.859375 -5.71875 C 7.859375 -4.6875 8.054688 -3.941406 8.453125 -3.484375 C 8.847656 -3.023438 9.460938 -2.796875 10.296875 -2.796875 C 10.804688 -2.796875 11.320312 -2.878906 11.84375 -3.046875 L 12.15625 -2.953125 L 12.59375 -0.09375 C 12.320312 0.0820312 11.9375 0.21875 11.4375 0.3125 C 10.9375 0.414062 10.398438 0.46875 9.828125 0.46875 Z M 9.828125 0.46875 "/></g></g></g><g fill="#057dcd" fill-opacity="1"><g transform="translate(308.606822, 327.600253)"><g><path d="M 20.921875 -24.703125 L 24.65625 -24.703125 L 13.625 3.875 C 12.988281 5.457031 12.28125 6.726562 11.5 7.6875 C 10.726562 8.65625 9.8125 9.363281 8.75 9.8125 C 7.695312 10.257812 6.429688 10.484375 4.953125 10.484375 C 4.117188 10.484375 3.335938 10.410156 2.609375 10.265625 C 1.878906 10.128906 1.253906 9.929688 0.734375 9.671875 L 1.40625 6.78125 L 1.8125 6.65625 C 2.175781 6.832031 2.625 6.984375 3.15625 7.109375 C 3.695312 7.234375 4.25 7.296875 4.8125 7.296875 C 5.8125 7.296875 6.640625 7.160156 7.296875 6.890625 C 7.953125 6.628906 8.515625 6.1875 8.984375 5.5625 C 9.460938 4.945312 9.898438 4.09375 10.296875 3 L 11.171875 0.578125 L 1.25 -24.703125 L 5.203125 -24.703125 L 12.96875 -4.546875 L 13.390625 -4.546875 Z M 20.921875 -24.703125 "/></g></g></g></svg>